<mxfile host="app.diagrams.net" agent="Mozilla/5.0 (Windows NT 10.0; Win64; x64) AppleWebKit/537.36 (KHTML, like Gecko) Chrome/132.0.0.0 Safari/537.36" version="26.0.11">
  <diagram name="ページ1" id="Dp9fhW9TdhnXTCHoRWRL">
    <mxGraphModel dx="2514" dy="868" grid="1" gridSize="10" guides="1" tooltips="1" connect="1" arrows="1" fold="1" page="1" pageScale="1" pageWidth="827" pageHeight="1169" math="0" shadow="0">
      <root>
        <mxCell id="0" />
        <mxCell id="1" parent="0" />
        <mxCell id="_KYadM6s-MJOFZfy3QNh-62" value="" style="group" vertex="1" connectable="0" parent="1">
          <mxGeometry x="-10" y="50" width="860" height="430" as="geometry" />
        </mxCell>
        <mxCell id="_KYadM6s-MJOFZfy3QNh-63" value="" style="rounded=0;whiteSpace=wrap;html=1;" vertex="1" parent="_KYadM6s-MJOFZfy3QNh-62">
          <mxGeometry x="-20" y="-30" width="880" height="460" as="geometry" />
        </mxCell>
        <mxCell id="_KYadM6s-MJOFZfy3QNh-61" value="" style="rounded=0;whiteSpace=wrap;html=1;" vertex="1" parent="_KYadM6s-MJOFZfy3QNh-62">
          <mxGeometry width="440" height="373.5" as="geometry" />
        </mxCell>
        <mxCell id="_KYadM6s-MJOFZfy3QNh-1" value="" style="outlineConnect=0;dashed=0;verticalLabelPosition=bottom;verticalAlign=top;align=center;html=1;shape=mxgraph.aws3.cloud_2;fillColor=#F58534;gradientColor=none;" vertex="1" parent="_KYadM6s-MJOFZfy3QNh-62">
          <mxGeometry width="40" height="40" as="geometry" />
        </mxCell>
        <mxCell id="_KYadM6s-MJOFZfy3QNh-37" value="" style="group;rotation=0;" vertex="1" connectable="0" parent="_KYadM6s-MJOFZfy3QNh-62">
          <mxGeometry x="430" y="160" width="90" height="80" as="geometry" />
        </mxCell>
        <mxCell id="_KYadM6s-MJOFZfy3QNh-7" value="" style="aspect=fixed;sketch=0;html=1;dashed=0;whitespace=wrap;verticalLabelPosition=bottom;verticalAlign=top;fillColor=#2875E2;strokeColor=#ffffff;points=[[0.005,0.63,0],[0.1,0.2,0],[0.9,0.2,0],[0.5,0,0],[0.995,0.63,0],[0.72,0.99,0],[0.5,1,0],[0.28,0.99,0]];shape=mxgraph.kubernetes.icon2;kubernetesLabel=1;prIcon=api;rotation=0;" vertex="1" parent="_KYadM6s-MJOFZfy3QNh-37">
          <mxGeometry x="28.38" y="16" width="31.25" height="30" as="geometry" />
        </mxCell>
        <mxCell id="_KYadM6s-MJOFZfy3QNh-36" value="&lt;font style=&quot;font-size: 9px;&quot;&gt;LINE&lt;/font&gt;&lt;div&gt;&lt;font style=&quot;font-size: 9px;&quot;&gt;Message　API&lt;/font&gt;&lt;/div&gt;" style="text;html=1;align=center;verticalAlign=middle;whiteSpace=wrap;rounded=0;rotation=0;" vertex="1" parent="_KYadM6s-MJOFZfy3QNh-37">
          <mxGeometry x="-1" y="46" width="90" height="34.285714285714285" as="geometry" />
        </mxCell>
        <mxCell id="_KYadM6s-MJOFZfy3QNh-35" value="" style="endArrow=classic;html=1;rounded=0;" edge="1" parent="_KYadM6s-MJOFZfy3QNh-62">
          <mxGeometry width="50" height="50" relative="1" as="geometry">
            <mxPoint x="650" y="193" as="sourcePoint" />
            <mxPoint x="760" y="193" as="targetPoint" />
          </mxGeometry>
        </mxCell>
        <mxCell id="_KYadM6s-MJOFZfy3QNh-12" value="" style="edgeStyle=orthogonalEdgeStyle;rounded=0;orthogonalLoop=1;jettySize=auto;html=1;" edge="1" parent="1" source="_KYadM6s-MJOFZfy3QNh-5" target="_KYadM6s-MJOFZfy3QNh-4">
          <mxGeometry relative="1" as="geometry" />
        </mxCell>
        <mxCell id="_KYadM6s-MJOFZfy3QNh-8" value="" style="verticalLabelPosition=bottom;aspect=fixed;html=1;shape=mxgraph.salesforce.bots;" vertex="1" parent="1">
          <mxGeometry x="570" y="213" width="60" height="57" as="geometry" />
        </mxCell>
        <mxCell id="_KYadM6s-MJOFZfy3QNh-11" value="" style="group" vertex="1" connectable="0" parent="1">
          <mxGeometry x="760" y="161.5" width="73" height="140" as="geometry" />
        </mxCell>
        <mxCell id="_KYadM6s-MJOFZfy3QNh-9" value="" style="verticalLabelPosition=bottom;verticalAlign=top;html=1;shadow=0;dashed=0;strokeWidth=1;shape=mxgraph.android.phone2;strokeColor=#c0c0c0;" vertex="1" parent="_KYadM6s-MJOFZfy3QNh-11">
          <mxGeometry width="73" height="140" as="geometry" />
        </mxCell>
        <mxCell id="_KYadM6s-MJOFZfy3QNh-10" value="LINE" style="text;html=1;align=center;verticalAlign=middle;whiteSpace=wrap;rounded=0;" vertex="1" parent="_KYadM6s-MJOFZfy3QNh-11">
          <mxGeometry x="5.899999999999977" y="60" width="57.1" height="30" as="geometry" />
        </mxCell>
        <mxCell id="_KYadM6s-MJOFZfy3QNh-14" value="" style="group" vertex="1" connectable="0" parent="1">
          <mxGeometry x="20" y="310" width="85" height="80" as="geometry" />
        </mxCell>
        <mxCell id="_KYadM6s-MJOFZfy3QNh-5" value="" style="sketch=0;points=[[0,0,0],[0.25,0,0],[0.5,0,0],[0.75,0,0],[1,0,0],[0,1,0],[0.25,1,0],[0.5,1,0],[0.75,1,0],[1,1,0],[0,0.25,0],[0,0.5,0],[0,0.75,0],[1,0.25,0],[1,0.5,0],[1,0.75,0]];outlineConnect=0;fontColor=#232F3E;fillColor=#7AA116;strokeColor=#ffffff;dashed=0;verticalLabelPosition=bottom;verticalAlign=top;align=center;html=1;fontSize=12;fontStyle=0;aspect=fixed;shape=mxgraph.aws4.resourceIcon;resIcon=mxgraph.aws4.budgets_2;" vertex="1" parent="_KYadM6s-MJOFZfy3QNh-14">
          <mxGeometry x="17.5" width="50" height="50" as="geometry" />
        </mxCell>
        <mxCell id="_KYadM6s-MJOFZfy3QNh-13" value="AWS Budgets" style="text;html=1;align=center;verticalAlign=middle;whiteSpace=wrap;rounded=0;" vertex="1" parent="_KYadM6s-MJOFZfy3QNh-14">
          <mxGeometry y="50" width="85" height="30" as="geometry" />
        </mxCell>
        <mxCell id="_KYadM6s-MJOFZfy3QNh-16" value="" style="group" vertex="1" connectable="0" parent="1">
          <mxGeometry x="185" y="310" width="60" height="80" as="geometry" />
        </mxCell>
        <mxCell id="_KYadM6s-MJOFZfy3QNh-4" value="" style="sketch=0;points=[[0,0,0],[0.25,0,0],[0.5,0,0],[0.75,0,0],[1,0,0],[0,1,0],[0.25,1,0],[0.5,1,0],[0.75,1,0],[1,1,0],[0,0.25,0],[0,0.5,0],[0,0.75,0],[1,0.25,0],[1,0.5,0],[1,0.75,0]];outlineConnect=0;fontColor=#232F3E;fillColor=#E7157B;strokeColor=#ffffff;dashed=0;verticalLabelPosition=bottom;verticalAlign=top;align=center;html=1;fontSize=12;fontStyle=0;aspect=fixed;shape=mxgraph.aws4.resourceIcon;resIcon=mxgraph.aws4.sns;" vertex="1" parent="_KYadM6s-MJOFZfy3QNh-16">
          <mxGeometry x="5" width="50" height="50" as="geometry" />
        </mxCell>
        <mxCell id="_KYadM6s-MJOFZfy3QNh-15" value="AWS SNS" style="text;html=1;align=center;verticalAlign=middle;whiteSpace=wrap;rounded=0;" vertex="1" parent="_KYadM6s-MJOFZfy3QNh-16">
          <mxGeometry y="50" width="60" height="30" as="geometry" />
        </mxCell>
        <mxCell id="_KYadM6s-MJOFZfy3QNh-18" value="" style="group" vertex="1" connectable="0" parent="1">
          <mxGeometry x="329" y="310" width="110" height="80" as="geometry" />
        </mxCell>
        <mxCell id="_KYadM6s-MJOFZfy3QNh-6" value="" style="sketch=0;points=[[0,0,0],[0.25,0,0],[0.5,0,0],[0.75,0,0],[1,0,0],[0,1,0],[0.25,1,0],[0.5,1,0],[0.75,1,0],[1,1,0],[0,0.25,0],[0,0.5,0],[0,0.75,0],[1,0.25,0],[1,0.5,0],[1,0.75,0]];outlineConnect=0;fontColor=#232F3E;fillColor=#ED7100;strokeColor=#ffffff;dashed=0;verticalLabelPosition=bottom;verticalAlign=top;align=center;html=1;fontSize=12;fontStyle=0;aspect=fixed;shape=mxgraph.aws4.resourceIcon;resIcon=mxgraph.aws4.lambda;" vertex="1" parent="_KYadM6s-MJOFZfy3QNh-18">
          <mxGeometry x="30" width="50" height="50" as="geometry" />
        </mxCell>
        <mxCell id="_KYadM6s-MJOFZfy3QNh-17" value="AWS&amp;nbsp;&lt;span style=&quot;background-color: transparent;&quot;&gt;Lambda&lt;/span&gt;　" style="text;html=1;align=center;verticalAlign=middle;whiteSpace=wrap;rounded=0;" vertex="1" parent="_KYadM6s-MJOFZfy3QNh-18">
          <mxGeometry y="50" width="110" height="30" as="geometry" />
        </mxCell>
        <mxCell id="_KYadM6s-MJOFZfy3QNh-20" value="" style="group" vertex="1" connectable="0" parent="1">
          <mxGeometry x="160" y="120" width="110" height="80" as="geometry" />
        </mxCell>
        <mxCell id="_KYadM6s-MJOFZfy3QNh-21" value="" style="sketch=0;points=[[0,0,0],[0.25,0,0],[0.5,0,0],[0.75,0,0],[1,0,0],[0,1,0],[0.25,1,0],[0.5,1,0],[0.75,1,0],[1,1,0],[0,0.25,0],[0,0.5,0],[0,0.75,0],[1,0.25,0],[1,0.5,0],[1,0.75,0]];outlineConnect=0;fontColor=#232F3E;fillColor=#ED7100;strokeColor=#ffffff;dashed=0;verticalLabelPosition=bottom;verticalAlign=top;align=center;html=1;fontSize=12;fontStyle=0;aspect=fixed;shape=mxgraph.aws4.resourceIcon;resIcon=mxgraph.aws4.lambda;" vertex="1" parent="_KYadM6s-MJOFZfy3QNh-20">
          <mxGeometry x="30" width="50" height="50" as="geometry" />
        </mxCell>
        <mxCell id="_KYadM6s-MJOFZfy3QNh-22" value="AWS&amp;nbsp;&lt;span style=&quot;background-color: transparent;&quot;&gt;Lambda&lt;/span&gt;　" style="text;html=1;align=center;verticalAlign=middle;whiteSpace=wrap;rounded=0;" vertex="1" parent="_KYadM6s-MJOFZfy3QNh-20">
          <mxGeometry y="50" width="110" height="30" as="geometry" />
        </mxCell>
        <mxCell id="_KYadM6s-MJOFZfy3QNh-44" value="" style="endArrow=classic;html=1;rounded=0;" edge="1" parent="_KYadM6s-MJOFZfy3QNh-20">
          <mxGeometry width="50" height="50" relative="1" as="geometry">
            <mxPoint x="-80" y="40" as="sourcePoint" />
            <mxPoint x="10" y="40" as="targetPoint" />
          </mxGeometry>
        </mxCell>
        <mxCell id="_KYadM6s-MJOFZfy3QNh-49" value="" style="endArrow=classic;html=1;rounded=0;exitX=0.75;exitY=0;exitDx=0;exitDy=0;" edge="1" parent="_KYadM6s-MJOFZfy3QNh-20" source="_KYadM6s-MJOFZfy3QNh-22">
          <mxGeometry width="50" height="50" relative="1" as="geometry">
            <mxPoint x="90" y="40" as="sourcePoint" />
            <mxPoint x="390" y="110" as="targetPoint" />
          </mxGeometry>
        </mxCell>
        <mxCell id="_KYadM6s-MJOFZfy3QNh-60" value="" style="outlineConnect=0;dashed=0;verticalLabelPosition=bottom;verticalAlign=top;align=center;html=1;shape=mxgraph.aws3.android;fillColor=#FFD44F;gradientColor=none;" vertex="1" parent="_KYadM6s-MJOFZfy3QNh-20">
          <mxGeometry x="60" y="24" width="28" height="32" as="geometry" />
        </mxCell>
        <mxCell id="_KYadM6s-MJOFZfy3QNh-24" value="" style="edgeStyle=orthogonalEdgeStyle;rounded=0;orthogonalLoop=1;jettySize=auto;html=1;entryX=0;entryY=0.5;entryDx=0;entryDy=0;entryPerimeter=0;" edge="1" parent="1" source="_KYadM6s-MJOFZfy3QNh-4" target="_KYadM6s-MJOFZfy3QNh-6">
          <mxGeometry relative="1" as="geometry" />
        </mxCell>
        <mxCell id="_KYadM6s-MJOFZfy3QNh-25" value="" style="group" vertex="1" connectable="0" parent="1">
          <mxGeometry x="340" y="120" width="81" height="80" as="geometry" />
        </mxCell>
        <mxCell id="_KYadM6s-MJOFZfy3QNh-2" value="" style="sketch=0;points=[[0,0,0],[0.25,0,0],[0.5,0,0],[0.75,0,0],[1,0,0],[0,1,0],[0.25,1,0],[0.5,1,0],[0.75,1,0],[1,1,0],[0,0.25,0],[0,0.5,0],[0,0.75,0],[1,0.25,0],[1,0.5,0],[1,0.75,0]];outlineConnect=0;fontColor=#232F3E;fillColor=#8C4FFF;strokeColor=#ffffff;dashed=0;verticalLabelPosition=bottom;verticalAlign=top;align=center;html=1;fontSize=12;fontStyle=0;aspect=fixed;shape=mxgraph.aws4.resourceIcon;resIcon=mxgraph.aws4.api_gateway;" vertex="1" parent="_KYadM6s-MJOFZfy3QNh-25">
          <mxGeometry x="16" width="50" height="50" as="geometry" />
        </mxCell>
        <mxCell id="_KYadM6s-MJOFZfy3QNh-23" value="&lt;div&gt;API Gateway&lt;/div&gt;&lt;div&gt;&lt;br&gt;&lt;/div&gt;" style="text;html=1;align=center;verticalAlign=middle;whiteSpace=wrap;rounded=0;" vertex="1" parent="_KYadM6s-MJOFZfy3QNh-25">
          <mxGeometry y="60" width="81" height="20" as="geometry" />
        </mxCell>
        <mxCell id="_KYadM6s-MJOFZfy3QNh-27" value="" style="group" vertex="1" connectable="0" parent="1">
          <mxGeometry y="120" width="75" height="80" as="geometry" />
        </mxCell>
        <mxCell id="_KYadM6s-MJOFZfy3QNh-19" value="" style="sketch=0;points=[[0,0,0],[0.25,0,0],[0.5,0,0],[0.75,0,0],[1,0,0],[0,1,0],[0.25,1,0],[0.5,1,0],[0.75,1,0],[1,1,0],[0,0.25,0],[0,0.5,0],[0,0.75,0],[1,0.25,0],[1,0.5,0],[1,0.75,0]];outlineConnect=0;fontColor=#232F3E;fillColor=#7AA116;strokeColor=#ffffff;dashed=0;verticalLabelPosition=bottom;verticalAlign=top;align=center;html=1;fontSize=12;fontStyle=0;aspect=fixed;shape=mxgraph.aws4.resourceIcon;resIcon=mxgraph.aws4.cost_explorer;" vertex="1" parent="_KYadM6s-MJOFZfy3QNh-27">
          <mxGeometry x="12.5" width="50" height="50" as="geometry" />
        </mxCell>
        <mxCell id="_KYadM6s-MJOFZfy3QNh-26" value="Cost Explorer" style="text;html=1;align=center;verticalAlign=middle;whiteSpace=wrap;rounded=0;" vertex="1" parent="_KYadM6s-MJOFZfy3QNh-27">
          <mxGeometry y="50" width="75" height="30" as="geometry" />
        </mxCell>
        <mxCell id="_KYadM6s-MJOFZfy3QNh-33" value="" style="endArrow=classic;html=1;rounded=0;exitX=1;exitY=0.5;exitDx=0;exitDy=0;exitPerimeter=0;" edge="1" parent="1" source="_KYadM6s-MJOFZfy3QNh-6">
          <mxGeometry width="50" height="50" relative="1" as="geometry">
            <mxPoint x="390" y="410" as="sourcePoint" />
            <mxPoint x="560" y="250" as="targetPoint" />
          </mxGeometry>
        </mxCell>
        <mxCell id="_KYadM6s-MJOFZfy3QNh-38" value="メッセージ&lt;div&gt;送信&lt;/div&gt;" style="text;html=1;align=center;verticalAlign=middle;whiteSpace=wrap;rounded=0;" vertex="1" parent="1">
          <mxGeometry x="460" y="301.5" width="80" height="30" as="geometry" />
        </mxCell>
        <mxCell id="_KYadM6s-MJOFZfy3QNh-39" value="LINE　Bot" style="text;html=1;align=center;verticalAlign=middle;whiteSpace=wrap;rounded=0;" vertex="1" parent="1">
          <mxGeometry x="570" y="270" width="60" height="30" as="geometry" />
        </mxCell>
        <mxCell id="_KYadM6s-MJOFZfy3QNh-40" value="LINEに通知" style="text;html=1;align=center;verticalAlign=middle;whiteSpace=wrap;rounded=0;" vertex="1" parent="1">
          <mxGeometry x="650" y="245" width="80" height="30" as="geometry" />
        </mxCell>
        <mxCell id="_KYadM6s-MJOFZfy3QNh-41" value="" style="endArrow=classic;html=1;rounded=0;" edge="1" parent="1">
          <mxGeometry width="50" height="50" relative="1" as="geometry">
            <mxPoint x="570" y="220" as="sourcePoint" />
            <mxPoint x="410" y="140" as="targetPoint" />
          </mxGeometry>
        </mxCell>
        <mxCell id="_KYadM6s-MJOFZfy3QNh-42" value="" style="endArrow=classic;html=1;rounded=0;" edge="1" parent="1">
          <mxGeometry width="50" height="50" relative="1" as="geometry">
            <mxPoint x="350" y="140" as="sourcePoint" />
            <mxPoint x="250" y="140" as="targetPoint" />
          </mxGeometry>
        </mxCell>
        <mxCell id="_KYadM6s-MJOFZfy3QNh-43" value="" style="endArrow=classic;html=1;rounded=0;" edge="1" parent="1">
          <mxGeometry width="50" height="50" relative="1" as="geometry">
            <mxPoint x="170" y="140" as="sourcePoint" />
            <mxPoint x="80" y="140" as="targetPoint" />
          </mxGeometry>
        </mxCell>
        <mxCell id="_KYadM6s-MJOFZfy3QNh-50" value="" style="endArrow=classic;html=1;rounded=0;" edge="1" parent="1">
          <mxGeometry width="50" height="50" relative="1" as="geometry">
            <mxPoint x="754" y="230" as="sourcePoint" />
            <mxPoint x="640" y="230" as="targetPoint" />
          </mxGeometry>
        </mxCell>
        <mxCell id="_KYadM6s-MJOFZfy3QNh-52" value="予算に到達" style="text;html=1;align=center;verticalAlign=middle;whiteSpace=wrap;rounded=0;" vertex="1" parent="1">
          <mxGeometry x="100" y="335" width="72.5" height="30" as="geometry" />
        </mxCell>
        <mxCell id="_KYadM6s-MJOFZfy3QNh-53" value="予算情報を転送" style="text;html=1;align=center;verticalAlign=middle;whiteSpace=wrap;rounded=0;" vertex="1" parent="1">
          <mxGeometry x="250" y="335" width="90" height="30" as="geometry" />
        </mxCell>
        <mxCell id="_KYadM6s-MJOFZfy3QNh-54" value="メッセージを送信" style="text;html=1;align=center;verticalAlign=middle;whiteSpace=wrap;rounded=0;" vertex="1" parent="1">
          <mxGeometry x="650" y="190" width="80" height="30" as="geometry" />
        </mxCell>
        <mxCell id="_KYadM6s-MJOFZfy3QNh-55" value="POST通信&lt;div&gt;(REST API)&lt;/div&gt;" style="text;html=1;align=center;verticalAlign=middle;whiteSpace=wrap;rounded=0;" vertex="1" parent="1">
          <mxGeometry x="480" y="145" width="100" height="30" as="geometry" />
        </mxCell>
        <mxCell id="_KYadM6s-MJOFZfy3QNh-56" value="メッセージ&lt;div&gt;送信&lt;/div&gt;" style="text;html=1;align=center;verticalAlign=middle;whiteSpace=wrap;rounded=0;" vertex="1" parent="1">
          <mxGeometry x="270" y="200" width="100" height="30" as="geometry" />
        </mxCell>
        <mxCell id="_KYadM6s-MJOFZfy3QNh-57" value="送信情報を転送" style="text;html=1;align=center;verticalAlign=middle;whiteSpace=wrap;rounded=0;" vertex="1" parent="1">
          <mxGeometry x="250" y="110" width="100" height="30" as="geometry" />
        </mxCell>
        <mxCell id="_KYadM6s-MJOFZfy3QNh-58" value="AWS使用料金&lt;div&gt;を要求&lt;/div&gt;" style="text;html=1;align=center;verticalAlign=middle;whiteSpace=wrap;rounded=0;" vertex="1" parent="1">
          <mxGeometry x="82.5" y="100" width="83.75" height="30" as="geometry" />
        </mxCell>
        <mxCell id="_KYadM6s-MJOFZfy3QNh-59" value="AWS使用料金&lt;div&gt;を送信&lt;/div&gt;" style="text;html=1;align=center;verticalAlign=middle;whiteSpace=wrap;rounded=0;" vertex="1" parent="1">
          <mxGeometry x="81.88" y="170" width="85" height="30" as="geometry" />
        </mxCell>
      </root>
    </mxGraphModel>
  </diagram>
</mxfile>
